<?xml version="1.0" encoding="UTF-8" standalone="no"?><!-- Generator: Gravit.io --><svg xmlns="http://www.w3.org/2000/svg" xmlns:xlink="http://www.w3.org/1999/xlink" style="isolation:isolate" viewBox="0 0 68.696 75.017" width="68.696pt" height="75.017pt"><defs><clipPath id="_clipPath_C1lfDyG32WDXcSl6a3t9U6Itd5eqvSPF"><rect width="68.696" height="75.017"/></clipPath></defs><g clip-path="url(#_clipPath_C1lfDyG32WDXcSl6a3t9U6Itd5eqvSPF)"><clipPath id="_clipPath_PdUwCoT8Qoeb7gFYMCOBjGg0rWs3CibA"><rect x="0" y="0" width="68.696" height="75.017" transform="matrix(1,0,0,1,0,0)" fill="rgb(255,255,255)"/></clipPath><g clip-path="url(#_clipPath_PdUwCoT8Qoeb7gFYMCOBjGg0rWs3CibA)"><g><clipPath id="_clipPath_g1Al4GUtgUKO5Jl7S2P3fUtZ4sndEIFy"><rect x="0" y="0" width="68.696" height="75.017" transform="matrix(1,0,0,1,0,0)" fill="rgb(255,255,255)"/></clipPath><g clip-path="url(#_clipPath_g1Al4GUtgUKO5Jl7S2P3fUtZ4sndEIFy)"><g><g><path d=" M 0 27 C 0 12.098 12.098 0 27 0 C 41.902 0 54 12.098 54 27 C 54 41.902 41.902 54 27 54 C 12.098 54 0 41.902 0 27 Z  M 5.522 27 C 5.522 15.146 15.146 5.522 27 5.522 C 38.854 5.522 48.478 15.146 48.478 27 C 48.478 38.854 38.854 48.478 27 48.478 C 15.146 48.478 5.522 38.854 5.522 27 Z " fill-rule="evenodd" fill="rgb(255,255,255)"/><path d=" M 42.204 44.022 L 42.204 44.022 C 43.472 42.958 45.366 43.123 46.43 44.392 L 67.994 70.089 C 69.058 71.357 68.893 73.251 67.625 74.315 L 67.625 74.315 C 66.356 75.379 64.462 75.214 63.398 73.945 L 41.834 48.249 C 40.77 46.98 40.935 45.087 42.204 44.022 Z " fill="rgb(255,255,255)"/><path d=" M 17.64 17.541 L 17.64 17.541 C 18.503 16.757 19.84 16.821 20.623 17.685 L 36.504 35.168 C 37.287 36.031 37.223 37.368 36.361 38.152 L 36.361 38.152 C 35.497 38.935 34.16 38.872 33.377 38.008 L 17.496 20.525 C 16.713 19.662 16.777 18.325 17.64 17.541 Z " fill="rgb(230,48,48)"/><path d=" M 36.371 17.661 L 36.371 17.661 C 37.228 18.451 37.284 19.788 36.494 20.645 L 20.493 38.019 C 19.703 38.876 18.366 38.932 17.509 38.142 L 17.509 38.142 C 16.651 37.352 16.596 36.015 17.386 35.157 L 33.386 17.784 C 34.176 16.926 35.513 16.871 36.371 17.661 Z " fill="rgb(230,48,48)"/></g></g></g></g></g></g></svg>