<?xml version="1.0" encoding="UTF-8" standalone="no"?><!-- Generator: Gravit.io --><svg xmlns="http://www.w3.org/2000/svg" xmlns:xlink="http://www.w3.org/1999/xlink" style="isolation:isolate" viewBox="0 0 200 200" width="200pt" height="200pt"><defs><clipPath id="_clipPath_yUf8KcrrLX5ye8ZCtDp2L3Sc1ralXTES"><rect width="200" height="200"/></clipPath></defs><g clip-path="url(#_clipPath_yUf8KcrrLX5ye8ZCtDp2L3Sc1ralXTES)"><path d=" M 147.651 192.149 C 114.959 181.086 89.62 162.92 71.634 137.652 Q 40.118 93.378 38.7 20.034 Q 38.783 20.09 38.866 20.146 C 39.001 18.002 40.27 15.994 42.351 15.018 L 54.71 9.222 C 57.746 7.799 61.367 9.107 62.791 12.143 L 81.285 51.58 C 82.708 54.615 81.399 58.236 78.363 59.66 L 66.004 65.456 C 64.618 66.106 63.11 66.186 61.747 65.788 C 61.918 67.596 62.25 69.487 62.828 71.484 Q 77.185 121.072 116.872 156.489 C 117.069 156.184 117.295 155.893 117.551 155.619 L 128.153 144.296 C 130.459 141.834 134.331 141.706 136.793 144.012 L 166.166 171.514 C 168.629 173.82 168.756 177.692 166.45 180.155 L 155.849 191.478 C 153.678 193.796 150.119 194.045 147.651 192.149 Z " fill-rule="evenodd" fill="rgb(232,232,232)"/><g/></g></svg>