<?xml version="1.0" encoding="UTF-8" standalone="no"?><!-- Generator: Gravit.io --><svg xmlns="http://www.w3.org/2000/svg" xmlns:xlink="http://www.w3.org/1999/xlink" style="isolation:isolate" viewBox="0 0 200 200" width="200pt" height="200pt"><defs><clipPath id="_clipPath_OPNCSA0fXSn8LHEwzZ3N7w44PqOS1Fhv"><rect width="200" height="200"/></clipPath></defs><g clip-path="url(#_clipPath_OPNCSA0fXSn8LHEwzZ3N7w44PqOS1Fhv)"><g><path d=" M 100.322 107.309 C 96.299 107.176 93.073 103.868 93.073 99.813 L 93.073 99.813 C 93.073 95.73 96.343 92.404 100.404 92.314 L 100.404 92.314 L 120.104 28.846 C 120.225 28.455 120.64 28.237 121.03 28.358 L 123.436 29.105 C 123.826 29.226 124.045 29.641 123.924 30.031 L 104.287 93.297 C 106.548 94.589 108.073 97.024 108.073 99.813 C 108.073 101.156 107.719 102.417 107.099 103.508 L 130.796 148.433 C 131.251 149.296 130.92 150.366 130.057 150.821 L 126.313 152.796 C 125.451 153.251 124.381 152.92 123.926 152.057 L 100.322 107.309 Z  M 15 100 C 15 53.087 53.087 15 100 15 C 146.913 15 185 53.087 185 100 C 185 146.913 146.913 185 100 185 C 53.087 185 15 146.913 15 100 L 15 100 L 15 100 Z " fill-rule="evenodd" fill="rgb(232,232,232)"/></g></g></svg>