<?xml version="1.0" encoding="UTF-8" standalone="no"?><!-- Generator: Gravit.io --><svg xmlns="http://www.w3.org/2000/svg" xmlns:xlink="http://www.w3.org/1999/xlink" style="isolation:isolate" viewBox="0 0 68.696 75.017" width="68.696pt" height="75.017pt"><defs><clipPath id="_clipPath_6GVznBirtNhGxL1mwptJzv2axdeeAyRF"><rect width="68.696" height="75.017"/></clipPath></defs><g clip-path="url(#_clipPath_6GVznBirtNhGxL1mwptJzv2axdeeAyRF)"><path d=" M 0 27 C 0 12.098 12.098 0 27 0 C 41.902 0 54 12.098 54 27 C 54 41.902 41.902 54 27 54 C 12.098 54 0 41.902 0 27 Z  M 5.522 27 C 5.522 15.146 15.146 5.522 27 5.522 C 38.854 5.522 48.478 15.146 48.478 27 C 48.478 38.854 38.854 48.478 27 48.478 C 15.146 48.478 5.522 38.854 5.522 27 Z " fill-rule="evenodd" fill="rgb(255,255,255)"/><path d="M 42.204 44.022 L 42.204 44.022 C 43.472 42.958 45.366 43.123 46.43 44.392 L 67.994 70.089 C 69.058 71.357 68.893 73.251 67.625 74.315 L 67.625 74.315 C 66.356 75.379 64.462 75.214 63.398 73.945 L 41.834 48.249 C 40.77 46.98 40.935 45.087 42.204 44.022 Z" style="stroke:none;fill:#FFFFFF;stroke-miterlimit:10;"/><path d=" M 40.928 11.699 C 44.533 15.461 46.743 20.567 46.743 26.184 C 46.743 37.774 37.334 47.184 25.743 47.184 C 23.751 47.184 21.823 46.906 20 46.377 C 32.494 43.351 41.782 32.084 41.782 18.665 C 41.782 16.263 41.484 13.93 40.928 11.699 Z " fill-rule="evenodd" fill="rgb(230,48,48)"/><rect x="9.925" y="19" width="68.696" height="45.946" transform="matrix(1,0,0,1,0,0)" fill="none"/></g></svg>