<?xml version="1.0" encoding="UTF-8" standalone="no"?><!-- Generator: Gravit.io --><svg xmlns="http://www.w3.org/2000/svg" xmlns:xlink="http://www.w3.org/1999/xlink" style="isolation:isolate" viewBox="0 0 462 309" width="462pt" height="309pt"><defs><clipPath id="_clipPath_vqzx4E72ovoyTv9C5n1KPqAW3PkOHxIy"><rect width="462" height="309"/></clipPath></defs><g clip-path="url(#_clipPath_vqzx4E72ovoyTv9C5n1KPqAW3PkOHxIy)"><path d=" M 221.5 309 L 241.5 309 C 241.5 296.582 251.582 286.5 264 286.5 C 276.418 286.5 286.5 296.582 286.5 309 L 307.5 309 C 307.5 296.582 317.582 286.5 330 286.5 C 342.418 286.5 352.5 296.582 352.5 309 L 371.5 309 C 371.5 296.582 381.582 286.5 394 286.5 C 406.418 286.5 416.5 296.582 416.5 309 L 436.5 309 C 436.5 296.582 446.582 286.5 459 286.5 C 460.19 286.5 461.359 286.593 462.5 286.771 L 462.5 274.229 C 461.359 274.407 460.19 274.5 459 274.5 C 446.582 274.5 436.5 264.418 436.5 252 C 436.5 239.582 446.582 229.5 459 229.5 C 460.19 229.5 461.359 229.593 462.5 229.771 L 462.5 209.229 C 461.359 209.407 460.19 209.5 459 209.5 C 446.582 209.5 436.5 199.418 436.5 187 C 436.5 174.582 446.582 164.5 459 164.5 C 460.19 164.5 461.359 164.593 462.5 164.771 L 462.5 144.229 C 461.359 144.407 460.19 144.5 459 144.5 C 446.582 144.5 436.5 134.418 436.5 122 C 436.5 109.582 446.582 99.5 459 99.5 C 460.19 99.5 461.359 99.593 462.5 99.771 L 462.5 78.229 C 461.359 78.407 460.19 78.5 459 78.5 C 446.582 78.5 436.5 68.418 436.5 56 C 436.5 43.582 446.582 33.5 459 33.5 C 460.19 33.5 461.359 33.593 462.5 33.771 L 462.5 23.229 C 461.359 23.407 460.19 23.5 459 23.5 C 446.582 23.5 436.5 13.418 436.5 1 C 436.5 0.665 436.507 0.332 436.522 0 L 416.478 0 C 416.493 0.332 416.5 0.665 416.5 1 C 416.5 13.418 406.418 23.5 394 23.5 C 381.582 23.5 371.5 13.418 371.5 1 C 371.5 0.665 371.507 0.332 371.522 0 L 352.478 0 C 352.493 0.332 352.5 0.665 352.5 1 C 352.5 13.418 342.418 23.5 330 23.5 C 317.582 23.5 307.5 13.418 307.5 1 C 307.5 0.665 307.507 0.332 307.522 0 L 286.478 0 C 286.493 0.332 286.5 0.665 286.5 1 C 286.5 13.418 276.418 23.5 264 23.5 C 251.582 23.5 241.5 13.418 241.5 1 C 241.5 0.665 241.507 0.332 241.522 0 L 221.478 0 C 221.493 0.332 221.5 0.665 221.5 1 C 221.5 13.418 211.418 23.5 199 23.5 C 198.496 23.5 197.996 23.483 197.5 23.451 L 197.5 33.549 C 197.996 33.517 198.496 33.5 199 33.5 C 211.418 33.5 221.5 43.582 221.5 56 C 221.5 68.418 211.418 78.5 199 78.5 C 198.496 78.5 197.996 78.483 197.5 78.451 L 197.5 99.549 C 197.996 99.517 198.496 99.5 199 99.5 C 211.418 99.5 221.5 109.582 221.5 122 C 221.5 134.418 211.418 144.5 199 144.5 C 198.496 144.5 197.996 144.483 197.5 144.451 L 197.5 164.549 C 197.996 164.517 198.496 164.5 199 164.5 C 211.418 164.5 221.5 174.582 221.5 187 C 221.5 199.418 211.418 209.5 199 209.5 C 198.496 209.5 197.996 209.483 197.5 209.451 L 197.5 229.549 C 197.996 229.517 198.496 229.5 199 229.5 C 211.418 229.5 221.5 239.582 221.5 252 C 221.5 264.418 211.418 274.5 199 274.5 C 198.496 274.5 197.996 274.483 197.5 274.451 L 197.5 286.549 C 197.996 286.517 198.496 286.5 199 286.5 C 211.418 286.5 221.5 296.582 221.5 309 Z " fill-rule="evenodd" fill="rgb(255,255,255)"/><text transform="matrix(1,0,0,1,234.52,245.218)" style="font-family:'Amiko';font-weight:700;font-size:56px;font-style:normal;fill:#e63030;stroke:none;">CLOSE</text><path d=" M 257.44 75.45 C 178.877 44.527 107.599 50.584 43.604 93.619 Q 31.947 101.458 20.613 110.932 Q 78.91 75.907 135.25 70.024 C 177.486 65.615 218.897 73.488 259.484 93.646 C 288.502 108.058 315.052 113.534 339.355 112.06 Q 399.231 108.429 416.19 76.039 L 416.19 76.039 Q 389.593 127.466 257.44 75.45 Z " fill="rgb(230,48,48)"/><path d=" M 263.249 127.158 C 184.687 96.235 113.408 102.292 49.413 145.327 Q 37.757 153.166 26.422 162.64 Q 84.719 127.615 141.06 121.732 C 183.296 117.323 224.707 125.197 265.294 145.354 C 294.312 159.766 320.861 165.242 345.164 163.768 Q 405.041 160.137 422 127.748 L 422 127.748 Q 395.402 179.174 263.249 127.158 Z " fill="rgb(230,48,48)"/></g></svg>