<?xml version="1.0" encoding="UTF-8" standalone="no"?><!-- Generator: Gravit.io --><svg xmlns="http://www.w3.org/2000/svg" xmlns:xlink="http://www.w3.org/1999/xlink" style="isolation:isolate" viewBox="0 0 462 309" width="462pt" height="309pt"><defs><clipPath id="_clipPath_GlD9qVcSZdeLyipmG3N2kANs2pruEtdw"><rect width="462" height="309"/></clipPath></defs><g clip-path="url(#_clipPath_GlD9qVcSZdeLyipmG3N2kANs2pruEtdw)"><path d=" M 221 309 L 241 309 C 241 296.582 251.082 286.5 263.5 286.5 C 275.918 286.5 286 296.582 286 309 L 307 309 C 307 296.582 317.082 286.5 329.5 286.5 C 341.918 286.5 352 296.582 352 309 L 371 309 C 371 296.582 381.082 286.5 393.5 286.5 C 405.918 286.5 416 296.582 416 309 L 436 309 C 436 296.582 446.082 286.5 458.5 286.5 C 459.69 286.5 460.859 286.593 462 286.771 L 462 274.229 C 460.859 274.407 459.69 274.5 458.5 274.5 C 446.082 274.5 436 264.418 436 252 C 436 239.582 446.082 229.5 458.5 229.5 C 459.69 229.5 460.859 229.593 462 229.771 L 462 209.229 C 460.859 209.407 459.69 209.5 458.5 209.5 C 446.082 209.5 436 199.418 436 187 C 436 174.582 446.082 164.5 458.5 164.5 C 459.69 164.5 460.859 164.593 462 164.771 L 462 144.229 C 460.859 144.407 459.69 144.5 458.5 144.5 C 446.082 144.5 436 134.418 436 122 C 436 109.582 446.082 99.5 458.5 99.5 C 459.69 99.5 460.859 99.593 462 99.771 L 462 78.229 C 460.859 78.407 459.69 78.5 458.5 78.5 C 446.082 78.5 436 68.418 436 56 C 436 43.582 446.082 33.5 458.5 33.5 C 459.69 33.5 460.859 33.593 462 33.771 L 462 23.229 C 460.859 23.407 459.69 23.5 458.5 23.5 C 446.082 23.5 436 13.418 436 1 C 436 0.665 436.007 0.332 436.022 0 L 415.978 0 C 415.993 0.332 416 0.665 416 1 C 416 13.418 405.918 23.5 393.5 23.5 C 381.082 23.5 371 13.418 371 1 C 371 0.665 371.007 0.332 371.022 0 L 351.978 0 C 351.993 0.332 352 0.665 352 1 C 352 13.418 341.918 23.5 329.5 23.5 C 317.082 23.5 307 13.418 307 1 C 307 0.665 307.007 0.332 307.022 0 L 285.978 0 C 285.993 0.332 286 0.665 286 1 C 286 13.418 275.918 23.5 263.5 23.5 C 251.082 23.5 241 13.418 241 1 C 241 0.665 241.007 0.332 241.022 0 L 220.978 0 C 220.993 0.332 221 0.665 221 1 C 221 13.418 210.918 23.5 198.5 23.5 C 197.996 23.5 197.496 23.483 197 23.451 L 197 33.549 C 197.496 33.517 197.996 33.5 198.5 33.5 C 210.918 33.5 221 43.582 221 56 C 221 68.418 210.918 78.5 198.5 78.5 C 197.996 78.5 197.496 78.483 197 78.451 L 197 99.549 C 197.496 99.517 197.996 99.5 198.5 99.5 C 210.918 99.5 221 109.582 221 122 C 221 134.418 210.918 144.5 198.5 144.5 C 197.996 144.5 197.496 144.483 197 144.451 L 197 164.549 C 197.496 164.517 197.996 164.5 198.5 164.5 C 210.918 164.5 221 174.582 221 187 C 221 199.418 210.918 209.5 198.5 209.5 C 197.996 209.5 197.496 209.483 197 209.451 L 197 229.549 C 197.496 229.517 197.996 229.5 198.5 229.5 C 210.918 229.5 221 239.582 221 252 C 221 264.418 210.918 274.5 198.5 274.5 C 197.996 274.5 197.496 274.483 197 274.451 L 197 286.549 C 197.496 286.517 197.996 286.5 198.5 286.5 C 210.918 286.5 221 296.582 221 309 Z " fill-rule="evenodd" fill="rgb(255,255,255)"/><path d=" M 257.44 75.45 C 178.877 44.527 107.599 50.584 43.604 93.619 Q 31.947 101.458 20.613 110.932 Q 78.91 75.907 135.25 70.024 C 177.486 65.615 218.897 73.488 259.484 93.646 C 288.502 108.058 315.052 113.534 339.355 112.06 Q 399.231 108.429 416.19 76.039 L 416.19 76.039 Q 389.593 127.466 257.44 75.45 Z " fill="rgb(230,48,48)"/><path d=" M 263.249 127.158 C 184.687 96.235 113.408 102.292 49.413 145.327 Q 37.757 153.166 26.422 162.64 Q 84.719 127.615 141.06 121.732 C 183.296 117.323 224.707 125.197 265.294 145.354 C 294.312 159.766 320.861 165.242 345.164 163.768 Q 405.041 160.137 422 127.748 L 422 127.748 Q 395.402 179.174 263.249 127.158 Z " fill="rgb(230,48,48)"/><path d=" M 245.02 244.4 L 245.02 203.24 L 258.58 203.24 L 264.34 225.92 L 264.34 225.92 Q 264.82 227.6 265.45 230.87 L 265.45 230.87 L 265.45 230.87 Q 266.08 234.14 266.26 235.22 L 266.26 235.22 L 266.56 235.22 L 266.56 235.22 Q 266.74 234.08 267.31 230.75 L 267.31 230.75 L 267.31 230.75 Q 267.88 227.42 268.24 225.92 L 268.24 225.92 L 274 203.24 L 286.96 203.24 L 286.96 244.4 L 278.26 244.4 L 278.26 218.18 L 278.26 218.18 Q 278.26 217.04 278.41 214.7 L 278.41 214.7 L 278.41 214.7 Q 278.56 212.36 278.62 211.58 L 278.62 211.58 L 278.32 211.58 L 277.06 216.44 L 269.98 244.4 L 261.7 244.4 L 254.62 216.44 L 253.36 211.58 L 253.06 211.58 L 253.06 211.58 Q 253.12 212.36 253.27 214.76 L 253.27 214.76 L 253.27 214.76 Q 253.42 217.16 253.42 218.18 L 253.42 218.18 L 253.42 244.4 L 245.02 244.4 Z  M 295 244.4 L 295 203.24 L 327.34 203.24 L 327.34 210.62 L 303.7 210.62 L 303.7 219.68 L 324.7 219.68 L 324.7 227.06 L 303.7 227.06 L 303.7 237.02 L 327.7 237.02 L 327.7 244.4 L 295 244.4 Z  M 335.02 244.4 L 335.02 203.24 L 343.48 203.24 L 359.32 225.62 L 359.32 225.62 Q 359.8 226.28 360.64 227.72 L 360.64 227.72 L 360.64 227.72 Q 361.48 229.16 361.72 229.64 L 361.72 229.64 L 362.02 229.46 L 362.02 229.46 Q 362.02 228.98 361.93 227.9 L 361.93 227.9 L 361.93 227.9 Q 361.84 226.82 361.84 225.98 L 361.84 225.98 L 361.84 203.24 L 370.3 203.24 L 370.3 244.4 L 361.84 244.4 L 345.94 221.84 L 345.94 221.84 Q 345.22 220.82 344.5 219.53 L 344.5 219.53 L 344.5 219.53 Q 343.78 218.24 343.6 217.88 L 343.6 217.88 L 343.3 218.06 L 343.3 218.06 Q 343.3 218.48 343.39 219.56 L 343.39 219.56 L 343.39 219.56 Q 343.48 220.64 343.48 221.66 L 343.48 221.66 L 343.48 244.4 L 335.02 244.4 Z  M 395.92 245.12 L 395.92 245.12 Q 387.58 245.12 382.96 241.04 L 382.96 241.04 L 382.96 241.04 Q 378.34 236.96 378.34 229.1 L 378.34 229.1 L 378.34 203.24 L 387.04 203.24 L 387.04 228.68 L 387.04 228.68 Q 387.04 233.12 389.35 235.43 L 389.35 235.43 L 389.35 235.43 Q 391.66 237.74 395.92 237.74 L 395.92 237.74 L 395.92 237.74 Q 400.18 237.74 402.55 235.43 L 402.55 235.43 L 402.55 235.43 Q 404.92 233.12 404.92 228.68 L 404.92 228.68 L 404.92 203.24 L 413.62 203.24 L 413.62 229.1 L 413.62 229.1 Q 413.62 236.96 408.97 241.04 L 408.97 241.04 L 408.97 241.04 Q 404.32 245.12 395.92 245.12 L 395.92 245.12 Z " fill="rgb(230,48,48)"/></g></svg>